# xmcd CD database file
#
# Track frame offsets:
#	150
#	15520
#	33200
#	54867
#	71675
#	92180
#	119060
#	134167
#	150867
#	166750
#
# Disc length: 2464 seconds
#
# Revision: 0
# Processed by: cddbd v1.5.1PL0 Copyright (c) Steve Scherf et al.
# Submitted via: CDex 1.51
#
DISCID=7a099e0a
DTITLE=Laura Nyro - Season Of Lights
DYEAR=1977
DGENRE=Rock
TTITLE0=The Confession
TTITLE1=And When I Die
TTITLE2=Upstairs By A Chinese Lamp
TTITLE3=Sweet Blindness
TTITLE4=Captain St. Lucifer
TTITLE5=Money
TTITLE6=The Cat Song
TTITLE7=Freeport
TTITLE8=Timer
TTITLE9=Emmie
EXTD=YEAR: 1977
EXTT0=
EXTT1=
EXTT2=
EXTT3=
EXTT4=
EXTT5=
EXTT6=
EXTT7=
EXTT8=
EXTT9=
PLAYORDER=
